<svg width="30" height="36" viewBox="0 0 30 36" xmlns="http://www.w3.org/2000/svg"><path d="M6 27c0 .825.675 1.5 1.5 1.5H9v5.25A2.247 2.247 0 0 0 11.25 36a2.247 2.247 0 0 0 2.25-2.25V28.5h3v5.25A2.247 2.247 0 0 0 18.75 36 2.247 2.247 0 0 0 21 33.75V28.5h1.5c.825 0 1.5-.675 1.5-1.5V12H6v15zM2.25 12A2.247 2.247 0 0 0 0 14.25v10.5A2.247 2.247 0 0 0 2.25 27a2.247 2.247 0 0 0 2.25-2.25v-10.5A2.247 2.247 0 0 0 2.25 12zm25.5 0a2.247 2.247 0 0 0-2.25 2.25v10.5A2.247 2.247 0 0 0 27.75 27 2.247 2.247 0 0 0 30 24.75v-10.5A2.247 2.247 0 0 0 27.75 12zm-7.455-8.76l1.95-1.95c.3-.3.3-.765 0-1.065-.3-.3-.765-.3-1.065 0l-2.22 2.22A8.76 8.76 0 0 0 15 1.5c-1.44 0-2.79.345-3.99.945L8.775.225c-.3-.3-.765-.3-1.065 0-.3.3-.3.765 0 1.065l1.965 1.965C7.455 4.89 6 7.515 6 10.5h18a8.948 8.948 0 0 0-3.705-7.26zM12 7.5h-1.5V6H12v1.5zm7.5 0H18V6h1.5v1.5z" fill="#FFCE00"/></svg>