<svg width="16px" fill="#475a8080" height="16px" class="svg-direction-icon svg-direction-icon_direction_down" viewBox="0 0 16 16"><path color="#475a8080" d="M6.5 2.5C6.5 1.67157 7.17157 1 8 1C8.82843 1 9.5 1.67157 9.5 2.5C9.5 3.32843 8.82843 4 8 4C7.17157 4 6.5 3.32843 6.5 2.5ZM6.5 8C6.5 7.17157 7.17157 6.5 8 6.5C8.82843 6.5 9.5 7.17157 9.5 8C9.5 8.82843 8.82843 9.5 8 9.5C7.17157 9.5 6.5 8.82843 6.5 8ZM8 12C7.17157 12 6.5 12.6716 6.5 13.5C6.5 14.3284 7.17157 15 8 15C8.82843 15 9.5 14.3284 9.5 13.5C9.5 12.6716 8.82843 12 8 12Z"></path></svg>
