<svg width="192" height="40" viewBox="0 0 192 40" fill="none" xmlns="http://www.w3.org/2000/svg">
<rect width="40" height="40" rx="6" fill="url(#paint0_linear_4121_11553)"/>
<path fill-rule="evenodd" clip-rule="evenodd" d="M25.5373 18.2763L22.6819 14.5377L25.5369 10.8H14.799V18.2763H25.5373ZM11.599 8H31.199L26.2052 14.5378L31.199 21.0763H14.9293L14.799 39.9999H11.4688L11.599 8Z" fill="white"/>
<path fill-rule="evenodd" clip-rule="evenodd" d="M150.802 8.39863C150.693 8.15609 150.451 8 150.185 8H149.434C149.169 8 148.929 8.15455 148.819 8.39528L138.835 30.2929C138.631 30.7394 138.959 31.2465 139.451 31.2465H142.192C142.456 31.2465 142.697 31.0925 142.807 30.8524L145.858 24.1966H153.705L156.784 30.8545C156.895 31.0934 157.135 31.2465 157.398 31.2465H160.024C160.515 31.2465 160.842 30.7425 160.641 30.2963L150.802 8.39863ZM178.586 8.31641C178.959 8.31641 179.262 8.61835 179.262 8.99082V30.5719C179.262 30.9444 178.959 31.2463 178.586 31.2463H176.248C175.875 31.2463 175.572 30.9444 175.572 30.5719V29.8444C174.012 31.1186 172.254 31.7643 170.319 31.7643C167.893 31.7643 165.809 30.8741 164.104 29.1123C162.405 27.3557 161.548 25.2311 161.548 22.774C161.548 20.3146 162.416 18.193 164.137 16.4457C165.861 14.6953 167.983 13.8124 170.463 13.8124C172.405 13.8124 174.116 14.4279 175.572 15.6443V8.99082C175.572 8.61835 175.875 8.31641 176.248 8.31641H178.586ZM186.951 13.8125C188.528 13.8125 190.14 14.6402 191.795 16.2485C192.061 16.5074 192.068 16.9322 191.809 17.1993L190.28 18.7819C190.024 19.047 189.602 19.0583 189.332 18.8073C188.311 17.8579 187.42 17.4058 186.677 17.4058C186.248 17.4058 185.913 17.531 185.637 17.7867C185.37 18.0333 185.247 18.3147 185.247 18.6736C185.247 19.0248 185.389 19.3263 185.705 19.6148C186.082 19.959 186.784 20.4093 187.795 20.9467L187.972 21.0403C189.198 21.6819 190.155 22.3992 190.841 23.199C191.574 24.0534 191.941 25.1015 191.941 26.3134C191.941 27.835 191.403 29.1397 190.341 30.1881C189.28 31.2353 187.959 31.7644 186.417 31.7644C184.3 31.7644 182.519 30.8602 181.124 29.0896C180.921 28.8321 180.933 28.4665 181.152 28.2227L182.653 26.5538C182.926 26.2503 183.404 26.2556 183.67 26.5651C184.591 27.6368 185.476 28.1424 186.331 28.1424C186.893 28.1424 187.353 27.9657 187.747 27.6025C188.131 27.2474 188.309 26.8636 188.309 26.4141C188.309 25.9599 188.152 25.6031 187.821 25.2994C187.449 24.9588 186.8 24.543 185.884 24.0653L185.337 23.785C184.219 23.1985 183.352 22.5429 182.738 21.8109C182.043 20.9813 181.701 19.9071 181.701 18.6161C181.701 17.2909 182.195 16.1425 183.163 15.2103C184.132 14.2771 185.408 13.8125 186.951 13.8125ZM170.523 17.4633C169.026 17.4633 167.801 17.9863 166.804 19.0482C165.795 20.1226 165.298 21.368 165.298 22.8172C165.298 24.2636 165.808 25.5122 166.843 26.5964C167.871 27.6726 169.08 28.1999 170.509 28.1999C171.851 28.1999 173.041 27.7031 174.111 26.688C175.167 25.6856 175.69 24.429 175.69 22.8747C175.69 21.3079 175.201 20.0267 174.217 18.9944C173.24 17.9696 172.023 17.4633 170.523 17.4633ZM147.63 20.3446L149.809 15.5508L151.97 20.3446H147.63Z" fill="#2E2F39"/>
<path fill-rule="evenodd" clip-rule="evenodd" d="M96.0975 8.99082C96.0975 8.61835 95.7947 8.31641 95.4212 8.31641H93.0262C92.6527 8.31641 92.3499 8.61835 92.3499 8.99082V14.2152H90.3138C89.9403 14.2152 89.6375 14.5172 89.6375 14.8897V16.9614C89.6375 17.3339 89.9403 17.6359 90.3138 17.6359H92.3499V28.2699C92.3499 29.4092 92.6228 30.2906 93.2065 30.8854C93.7917 31.4816 94.6481 31.7643 95.7386 31.7643C96.1961 31.7643 96.8103 31.7036 97.5906 31.5835L97.9523 31.5255C98.2802 31.473 98.5213 31.1908 98.5213 30.8597V28.8167C98.5213 28.4442 98.2185 28.1423 97.845 28.1423L96.3577 28.1414C96.2597 28.1398 96.1744 28.1357 96.1027 28.1294C96.1005 28.0957 96.0989 28.0583 96.0981 28.0174L96.0975 17.6359H98.5375C98.911 17.6359 99.2138 17.3339 99.2138 16.9614V14.8897C99.2138 14.5172 98.911 14.2152 98.5375 14.2152H96.0975V8.99082ZM135.393 16.4458C133.669 14.6955 131.553 13.8125 129.082 13.8125C127.147 13.8125 125.442 14.4278 123.987 15.6437V14.8898C123.987 14.5173 123.685 14.2153 123.311 14.2153H120.945C120.572 14.2153 120.269 14.5173 120.269 14.8898V36.1256C120.269 36.498 120.572 36.8 120.945 36.8H123.311C123.685 36.8 123.987 36.498 123.987 36.1256V29.845C125.546 31.1188 127.298 31.7644 129.226 31.7644C131.642 31.7644 133.722 30.874 135.427 29.1124C137.126 27.3558 137.982 25.2312 137.982 22.7741C137.982 20.3147 137.114 18.1931 135.393 16.4458ZM109.021 13.8125C111.474 13.8125 113.578 14.7018 115.292 16.4631C117.002 18.2197 117.863 20.3449 117.863 22.8028C117.863 25.2596 117.012 27.3795 115.322 29.1267C113.626 30.8803 111.512 31.7644 109.021 31.7644C106.531 31.7644 104.413 30.8808 102.707 29.1282C101.007 27.381 100.15 25.2605 100.15 22.8028C100.15 20.3449 101.012 18.2197 102.722 16.4631C104.436 14.7015 106.549 13.8125 109.021 13.8125ZM75.3476 14.89C75.3476 14.5176 75.0448 14.2156 74.6713 14.2156H72.2763C71.9028 14.2156 71.6 14.5176 71.6 14.89V30.5723C71.6 30.9448 71.9028 31.2467 72.2763 31.2467H74.6713C75.0448 31.2467 75.3476 30.9448 75.3476 30.5723V14.89ZM80.8862 8.31641C81.2597 8.31641 81.5625 8.61835 81.5625 8.99082V30.5719C81.5625 30.9444 81.2597 31.2463 80.8862 31.2463H78.52C78.1465 31.2463 77.8438 30.9444 77.8438 30.5719V8.99082C77.8438 8.61835 78.1465 8.31641 78.52 8.31641H80.8862ZM87.8062 8.99082C87.8062 8.61835 87.5034 8.31641 87.1299 8.31641H84.7638C84.3903 8.31641 84.0875 8.61835 84.0875 8.99082V30.5719C84.0875 30.9444 84.3903 31.2463 84.7638 31.2463H87.1299C87.5034 31.2463 87.8062 30.9444 87.8062 30.5719V8.99082ZM55.1867 8.83438C55.5602 8.83438 55.863 9.13632 55.863 9.50879V17.4956H64.6386V9.50879C64.6386 9.13632 64.9414 8.83438 65.3149 8.83438H67.7964C68.1699 8.83438 68.4727 9.13632 68.4727 9.50879V30.572C68.4727 30.9444 68.1699 31.2464 67.7964 31.2464H65.3149C64.9414 31.2464 64.6386 30.9444 64.6386 30.572V21.2615H55.863V30.572C55.863 30.9444 55.5602 31.2464 55.1867 31.2464H52.6763C52.3028 31.2464 52 30.9444 52 30.572V9.50879C52 9.13632 52.3028 8.83438 52.6763 8.83438H55.1867ZM125.342 18.9985C126.339 17.9702 127.553 17.4633 129.025 17.4633C130.496 17.4633 131.72 17.9792 132.737 19.0275C133.759 20.0809 134.264 21.3368 134.264 22.8316C134.264 24.324 133.752 25.5784 132.713 26.6317C131.674 27.6844 130.476 28.1999 129.083 28.1999C127.628 28.1999 126.406 27.6915 125.379 26.6585C124.352 25.6258 123.844 24.3631 123.844 22.8316C123.844 21.2966 124.34 20.0314 125.342 18.9985ZM109.005 17.4922C107.627 17.4922 106.452 18.0132 105.443 19.0792C104.426 20.1529 103.925 21.4116 103.925 22.8893C103.925 24.368 104.408 25.6016 105.384 26.6259C106.351 27.6414 107.549 28.1425 109.02 28.1425C110.432 28.1425 111.618 27.6369 112.617 26.6072C113.619 25.5729 114.114 24.3409 114.114 22.8749C114.114 21.4083 113.609 20.1551 112.584 19.0812C111.565 18.0139 110.385 17.4922 109.005 17.4922ZM75.254 9.04627C74.7702 8.56377 74.1601 8.31641 73.4629 8.31641C72.7792 8.31641 72.1768 8.57291 71.6943 9.06706C71.2168 9.55611 70.9688 10.1511 70.9688 10.818C70.9688 11.4849 71.2168 12.0799 71.6943 12.569C72.1775 13.0638 72.785 13.3196 73.4774 13.3196C74.1659 13.3196 74.7709 13.0716 75.254 12.5898C75.7372 12.1079 75.9859 11.5046 75.9859 10.818C75.9859 10.1314 75.7372 9.5281 75.254 9.04627Z" fill="#38B0E4"/>
<defs>
<linearGradient id="paint0_linear_4121_11553" x1="43.3324" y1="49.1977" x2="55.1699" y2="5.91875" gradientUnits="userSpaceOnUse">
<stop stop-color="#00B7B3"/>
<stop offset="1" stop-color="#2EAFE6"/>
</linearGradient>
</defs>
</svg>
