<svg fill="currentColor" viewBox="0 0 24 24" width="24" height="24" stroke="currentColor"><path d="M1 8C1 7.283 1 6.806 1.03 6.44C1.06 6.084 1.111 5.922 1.163 5.819C1.30685 5.53651 1.53651 5.30685 1.819 5.163C1.922 5.111 2.084 5.06 2.439 5.031C2.806 5 3.283 5 4 5H10C10.717 5 11.194 5 11.56 5.03C11.916 5.06 12.078 5.111 12.181 5.163C12.4631 5.30702 12.6924 5.53666 12.836 5.819C12.889 5.922 12.94 6.084 12.969 6.439C12.999 6.806 13 7.283 13 8V14C13 14.717 13 15.194 12.97 15.56C12.94 15.916 12.889 16.078 12.836 16.181C12.6922 16.463 12.463 16.6922 12.181 16.836C12.078 16.889 11.916 16.94 11.561 16.969C11.194 17 10.717 17 10 17H4C3.283 17 2.806 17 2.44 16.97C2.084 16.94 1.922 16.889 1.819 16.837C1.53651 16.6931 1.30685 16.4635 1.163 16.181C1.111 16.078 1.06 15.916 1.031 15.561C1 15.194 1 14.717 1 14V8Z" fill="none" stroke-width="2"></path><path fill-rule="evenodd" clip-rule="evenodd" d="M7 2H5C4.73478 2 4.48043 1.89464 4.29289 1.70711C4.10536 1.51957 4 1.26522 4 1C4 0.734784 4.10536 0.48043 4.29289 0.292893C4.48043 0.105357 4.73478 0 5 0H11.6C13.84 0 14.96 1.19209e-07 15.816 0.436C16.5686 0.819488 17.1805 1.43139 17.564 2.184C18 3.04 18 4.16 18 6.4V13C18 13.2652 17.8946 13.5196 17.7071 13.7071C17.5196 13.8946 17.2652 14 17 14C16.7348 14 16.4804 13.8946 16.2929 13.7071C16.1054 13.5196 16 13.2652 16 13V6C16 4.6 16 3.9 15.727 3.365C15.4875 2.89451 15.1053 2.51189 14.635 2.272C14.1 2 13.4 2 12 2H7Z" stroke="none"></path></svg>
