<svg fill="none" viewBox="0 0 24 24" width="24" height="24"><path d="M14.793 7.36817L6.433 15.7282C6.2529 15.9076 6.10866 16.1197 6.008 16.3532L4.28 19.5202L7.645 17.9902C7.878 17.8892 8.09 17.7452 8.269 17.5662L16.629 9.20417C16.4032 8.82927 16.1299 8.48509 15.816 8.18017C15.5113 7.86666 15.1675 7.59374 14.793 7.36817ZM16.239 5.92217C16.574 6.15917 16.904 6.44117 17.23 6.76617C17.556 7.09217 17.838 7.42317 18.075 7.75817L19.546 6.28717C19.6156 6.21767 19.6632 6.12917 19.6828 6.03276C19.7023 5.93635 19.693 5.83631 19.656 5.74517C19.549 5.48317 19.358 5.20817 19.074 4.92317C18.789 4.63917 18.514 4.44817 18.252 4.34117C18.1609 4.30415 18.0608 4.29484 17.9644 4.31441C17.868 4.33397 17.7795 4.38155 17.71 4.45117L16.24 5.92217H16.239ZM4.17 15.5642C4.37072 15.0974 4.65851 14.6732 5.018 14.3142L16.296 3.03617C16.6435 2.68863 17.0856 2.4512 17.5673 2.35356C18.0489 2.25591 18.5486 2.30239 19.004 2.48717C19.53 2.70117 20.024 3.04417 20.488 3.50817C20.952 3.97317 21.296 4.46717 21.508 4.99217C21.6929 5.44744 21.7395 5.94712 21.6421 6.42875C21.5446 6.91038 21.3074 7.3526 20.96 7.70017L9.684 18.9802C9.32488 19.3393 8.90066 19.6268 8.434 19.8272L4.992 21.3072C4.67042 21.4456 4.3147 21.4844 3.97082 21.4186C3.62695 21.3527 3.31073 21.1853 3.06305 20.9378C2.81537 20.6903 2.64761 20.3743 2.58146 20.0304C2.51532 19.6866 2.55382 19.3309 2.692 19.0092L4.17 15.5642Z" fill="currentColor"></path></svg>
