<svg width="16px" fill="currentColor" height="16px" viewBox="0 0 16 16"><path d="M12.3 2.78597V2.46259L11.1503 2.7769C10.6125 2.92391 10.0575 2.99841 9.5 2.99841C8.9 2.99841 8.5 2.55069 8.5 1.99731C8.5 1.44503 8.94772 0.997314 9.5 0.997314H14C14.5523 0.997314 15 1.44503 15 1.99731V6.50183C15 7.05411 14.5523 7.50183 14 7.50183C13.4477 7.50183 13 7.09909 13 6.50183C13 5.9425 13.0747 5.38569 13.222 4.84613L13.5353 3.69909H13.2144L12.1366 5.13597C11.8524 5.51495 11.5415 5.87326 11.2065 6.20817L10.2042 7.21033C9.81361 7.60078 9.18045 7.60065 8.79 7.21005C8.39955 6.81945 8.39968 6.18629 8.79028 5.79584L9.79386 4.79238C10.1265 4.45991 10.4821 4.15132 10.8581 3.86889L12.3 2.78597ZM3.7 13.2044V13.5278L4.84973 13.2135C5.3875 13.0665 5.9425 12.992 6.5 12.992C7.1 12.992 7.5 13.4397 7.5 13.9931C7.5 14.5454 7.05228 14.9931 6.5 14.9931H2C1.44772 14.9931 1 14.5454 1 13.9931V9.48857C1 8.93629 1.44772 8.48857 2 8.48857C2.55228 8.48857 3 8.89131 3 9.48857C3 10.0479 2.92533 10.6047 2.77795 11.1443L2.46466 12.2913H2.78564L3.86338 10.8544C4.14763 10.4754 4.45846 10.1171 4.7935 9.78223L5.79579 8.78007C6.18639 8.38962 6.81955 8.38975 7.21 8.78035C7.60045 9.17095 7.60032 9.80411 7.20972 10.1946L6.20614 11.198C5.87354 11.5305 5.5179 11.8391 5.14187 12.1215L3.7 13.2044Z" fill="currentColor"></path></svg>