<svg width="52" height="20" viewBox="0 0 52 20" fill="none" xmlns="http://www.w3.org/2000/svg">
<path d="M0 2C0 0.895431 0.895431 0 2 0H26V20H2C0.89543 20 0 19.1046 0 18V2Z" fill="#F9ECAF"/>
<path d="M7.317 5.15234H5.41614V7.0347H7.317V5.15234Z" fill="#434445"/>
<path d="M20.6111 5.15234H9.31702V7.0347H20.6111V5.15234Z" fill="#434445"/>
<path d="M7.317 10.0347H5.41614V11.917H7.317V10.0347Z" fill="#434445"/>
<path d="M20.6111 10.0347H9.31702V11.917H20.6111V10.0347Z" fill="#434445"/>
<path d="M7.317 14.917H5.41614V16.7993H7.317V14.917Z" fill="#434445"/>
<path d="M20.6111 14.917H9.31702V16.7993H20.6111V14.917Z" fill="#434445"/>
<rect x="0.15" y="0.15" width="51.7" height="19.7" rx="1.85" stroke="#CCCCCC" stroke-width="0.3"/>
<path d="M46.058 5H34.7639V6.88235H46.058V5Z" fill="#434445"/>
<path d="M32.9009 5H31V6.88235H32.9009V5Z" fill="#434445"/>
<path d="M46.0395 9.74414H38.5101V11.6265H46.0395V9.74414Z" fill="#434445"/>
<path d="M36.6462 9.74414H34.7454V11.6265H36.6462V9.74414Z" fill="#434445"/>
<path d="M46.0395 14.4419H42.2748V16.3242H46.0395V14.4419Z" fill="#434445"/>
<path d="M40.411 14.4419H38.5101V16.3242H40.411V14.4419Z" fill="#434445"/>
<line x1="26.15" x2="26.15" y2="20" stroke="#CCCCCC" stroke-width="0.3"/>
</svg>
