<svg width="16px" fill="currentColor" height="16px" viewBox="0 0 16 16"><path d="M4.79767 3.15923C4.49622 3.47802 4.72222 4.00277 5.16096 4.00277H7V9.00003C7 9.55231 7.44772 10 8 10C8.55228 10 9 9.55231 9 9.00003V4.00277H10.839C11.2778 4.00277 11.5038 3.47802 11.2023 3.15923L8.36329 0.15695C8.16602 -0.0516654 7.83398 -0.0516656 7.63671 0.15695L4.79767 3.15923ZM13 7.00003C13 6.44775 13.4477 6.00003 14 6.00003C14.5523 6.00003 15 6.44775 15 7.00003V13.5C15 14.3285 14.3284 15 13.5 15H2.5C1.67157 15 1 14.3285 1 13.5V7.00003C1 6.44775 1.44772 6.00003 2 6.00003C2.55228 6.00003 3 6.44775 3 7.00003V13H13V7.00003Z" color="#333333"></path></svg>
