<svg width="16px" fill="currentColor" height="16px" viewBox="0 0 16 16" class="widget-grid__drag-icon"><path color="currentColor" fill-rule="evenodd" clip-rule="evenodd" d="M6.60049 4.3C6.60049 5.01797 6.01846 5.6 5.30049 5.6C4.58252 5.6 4.00049 5.01797 4.00049 4.3C4.00049 3.58203 4.58252 3 5.30049 3C6.01846 3 6.60049 3.58203 6.60049 4.3ZM5.30049 9.6C6.01846 9.6 6.60049 9.01797 6.60049 8.3C6.60049 7.58203 6.01846 7 5.30049 7C4.58252 7 4.00049 7.58203 4.00049 8.3C4.00049 9.01797 4.58252 9.6 5.30049 9.6ZM5.30049 13.6C6.01846 13.6 6.60049 13.018 6.60049 12.3C6.60049 11.582 6.01846 11 5.30049 11C4.58252 11 4.00049 11.582 4.00049 12.3C4.00049 13.018 4.58252 13.6 5.30049 13.6ZM10.6335 13.6C11.3515 13.6 11.9335 13.018 11.9335 12.3C11.9335 11.582 11.3515 11 10.6335 11C9.91553 11 9.3335 11.582 9.3335 12.3C9.3335 13.018 9.91553 13.6 10.6335 13.6ZM11.9335 8.3C11.9335 9.01797 11.3515 9.6 10.6335 9.6C9.91553 9.6 9.3335 9.01797 9.3335 8.3C9.3335 7.58203 9.91553 7 10.6335 7C11.3515 7 11.9335 7.58203 11.9335 8.3ZM10.6335 5.6C11.3515 5.6 11.9335 5.01797 11.9335 4.3C11.9335 3.58203 11.3515 3 10.6335 3C9.91553 3 9.3335 3.58203 9.3335 4.3C9.3335 5.01797 9.91553 5.6 10.6335 5.6Z"></path></svg>
