<svg width="24px" fill="#475a8080" height="24px" viewBox="0 0 24 24"><path color="#475a8080" d="M17.7951 3H6.20486C5.09046 3 4.68635 3.11603 4.27894 3.33392C3.87154 3.5518 3.5518 3.87154 3.33392 4.27894C3.11603 4.68635 3 5.09046 3 6.20486V17.7951C3 18.9095 3.11603 19.3137 3.33392 19.7211C3.5518 20.1285 3.87154 20.4482 4.27894 20.6661C4.68635 20.884 5.09046 21 6.20486 21H17.7951C18.9095 21 19.3137 20.884 19.7211 20.6661C20.1285 20.4482 20.4482 20.1285 20.6661 19.7211C20.884 19.3137 21 18.9095 21 17.7951V6.20486C21 5.09046 20.884 4.68635 20.6661 4.27894C20.4482 3.87154 20.1285 3.5518 19.7211 3.33392C19.3137 3.11603 18.9095 3 17.7951 3ZM5.35599 5.04897C5.51125 5.01899 5.77844 5 6.20486 5H17.7951C18.2216 5 18.4887 5.01899 18.644 5.04897C18.7048 5.06072 18.7183 5.06567 18.7779 5.09754C18.8367 5.12903 18.871 5.16327 18.9025 5.22214C18.9343 5.28173 18.9393 5.29517 18.951 5.35599C18.981 5.51125 19 5.77844 19 6.20486V17.7951C19 18.2216 18.981 18.4887 18.951 18.644C18.9393 18.7048 18.9343 18.7183 18.9025 18.7779C18.871 18.8367 18.8367 18.871 18.7779 18.9025C18.7183 18.9343 18.7048 18.9393 18.644 18.951C18.4887 18.981 18.2216 19 17.7951 19H6.20486C5.77844 19 5.51125 18.981 5.35599 18.951C5.29517 18.9393 5.28173 18.9343 5.22214 18.9025C5.16327 18.871 5.12903 18.8367 5.09754 18.7779C5.06567 18.7183 5.06072 18.7048 5.04897 18.644C5.01899 18.4887 5 18.2216 5 17.7951V6.20486C5 5.77844 5.01899 5.51125 5.04897 5.35599C5.06072 5.29517 5.06567 5.28173 5.09754 5.22214C5.12903 5.16327 5.16327 5.12903 5.22214 5.09754C5.28173 5.06567 5.29517 5.06072 5.35599 5.04897ZM7 11.75C7 11.3358 7.33579 11 7.75 11H16.25C16.6642 11 17 11.3358 17 11.75V16.25C17 16.6642 16.6642 17 16.25 17H7.75C7.33579 17 7 16.6642 7 16.25V11.75ZM8 7C7.44772 7 7 7.44772 7 8C7 8.55228 7.44772 9 8 9H14C14.5523 9 15 8.55228 15 8C15 7.44772 14.5523 7 14 7H8Z"></path></svg>
