<svg width="16px" fill="currentColor" height="16px" viewBox="0 0 16 16"><path d="M7.5 1.99604C8.05228 1.99604 8.5 2.44376 8.5 2.99604C8.5 3.54833 8.05228 3.99604 7.5 3.99604H4.5C3.67157 3.99604 3 4.66761 3 5.49604C3 6.32447 3.67157 6.99604 4.5 6.99604H11.5C13.433 6.99604 15 8.56304 15 10.496C15 12.429 13.433 13.996 11.5 13.996H7.5C6.94772 13.996 6.5 13.5483 6.5 12.996C6.5 12.4438 6.94772 11.996 7.5 11.996H11.5C12.3284 11.996 13 11.3245 13 10.496C13 9.66761 12.3284 8.99604 11.5 8.99604H4.5C2.567 8.99604 1 7.42904 1 5.49604C1 3.56304 2.567 1.99604 4.5 1.99604H7.5ZM3 14.9973C1.89543 14.9973 1 14.1019 1 12.9973C1 11.8928 1.89543 10.9973 3 10.9973C4.10457 10.9973 5 11.8928 5 12.9973C5 14.1019 4.10457 14.9973 3 14.9973ZM10 1.00765C10 0.920857 10.0226 0.835554 10.0656 0.760137C10.2023 0.520205 10.5076 0.436518 10.7475 0.573218L14.2378 2.5618C14.3157 2.60618 14.3802 2.67068 14.4247 2.74855C14.5614 2.98843 14.4779 3.29378 14.238 3.43058L10.7477 5.42095C10.6722 5.46398 10.5869 5.48661 10.5 5.48661C10.2239 5.48661 10 5.26275 10 4.98661V1.00765Z" color="currentColor"></path></svg>
