<svg fill="currentColor" viewBox="0 0 24 24" width="24" height="24"><path fill-rule="evenodd" clip-rule="evenodd" d="M7.80157 7.00391C7.80157 6.20826 8.13311 5.44519 8.72325 4.88259C9.31339 4.31998 10.1138 4.00391 10.9484 4.00391H13.0462C13.8808 4.00391 14.6812 4.31998 15.2713 4.88259C15.8615 5.44519 16.193 6.20826 16.193 7.00391H18.2909C18.5691 7.00391 18.8359 7.10926 19.0326 7.2968C19.2293 7.48434 19.3398 7.73869 19.3398 8.00391C19.3398 8.26912 19.2293 8.52348 19.0326 8.71101C18.8359 8.89855 18.5691 9.00391 18.2909 9.00391H17.6049L16.8287 18.6189C16.7983 18.9956 16.6199 19.3475 16.3292 19.6043C16.0385 19.861 15.6568 20.0038 15.2605 20.0039H8.73407C8.33759 20.004 7.95568 19.8614 7.66474 19.6046C7.3738 19.3478 7.19527 18.9958 7.16487 18.6189L6.38867 9.00391H5.70371C5.42552 9.00391 5.15872 8.89855 4.96201 8.71101C4.7653 8.52348 4.65479 8.26912 4.65479 8.00391C4.65479 7.73869 4.7653 7.48434 4.96201 7.2968C5.15872 7.10926 5.42552 7.00391 5.70371 7.00391H7.80157ZM9.46518 9.95391C9.35523 9.962 9.24804 9.99067 9.14973 10.0383C9.05142 10.0859 8.96391 10.1515 8.89221 10.2314C8.82051 10.3112 8.76603 10.4038 8.73188 10.5038C8.69772 10.6037 8.68457 10.7091 8.69316 10.8139L9.13896 16.3189C9.1475 16.4237 9.17761 16.5259 9.22756 16.6196C9.27752 16.7133 9.34634 16.7967 9.43011 16.865C9.51388 16.9334 9.61094 16.9853 9.71577 17.0179C9.82059 17.0505 9.93112 17.063 10.041 17.0549C10.151 17.0468 10.2581 17.0181 10.3564 16.9704C10.4547 16.9228 10.5422 16.8572 10.6139 16.7773C10.6856 16.6975 10.74 16.6049 10.7742 16.505C10.8084 16.4051 10.8216 16.2997 10.8131 16.1949L10.3662 10.6909C10.3577 10.5861 10.3277 10.4839 10.2777 10.3902C10.2278 10.2964 10.1589 10.213 10.0752 10.1447C9.99139 10.0763 9.89431 10.0244 9.78946 9.99181C9.68461 9.95925 9.57406 9.94671 9.46413 9.95491L9.46518 9.95391ZM13.6284 10.6959C13.6493 10.4872 13.7553 10.2947 13.9236 10.1597C14.0918 10.0247 14.309 9.95815 14.5282 9.97427C14.7475 9.99039 14.9514 10.0879 15.096 10.2459C15.2406 10.4039 15.3143 10.6096 15.3014 10.8189L14.8556 16.3119C14.8491 16.418 14.8204 16.5218 14.7713 16.6172C14.7222 16.7126 14.6537 16.7978 14.5697 16.8677C14.4857 16.9375 14.3879 16.9908 14.2821 17.0242C14.1763 17.0577 14.0646 17.0707 13.9534 17.0625C13.8423 17.0544 13.7339 17.0252 13.6348 16.9766C13.5356 16.9281 13.4475 16.8612 13.3758 16.7799C13.304 16.6985 13.25 16.6044 13.2168 16.5029C13.1836 16.4015 13.172 16.2947 13.1826 16.1889L13.6284 10.6959ZM10.9484 6.00391C10.6702 6.00391 10.4034 6.10926 10.2067 6.2968C10.0099 6.48434 9.89943 6.73869 9.89943 7.00391H14.0952C14.0952 6.73869 13.9846 6.48434 13.7879 6.2968C13.5912 6.10926 13.3244 6.00391 13.0462 6.00391H10.9484Z" fill="#currentColor"></path></svg>
