<svg width="27" height="32" viewBox="0 0 27 32" xmlns="http://www.w3.org/2000/svg"><path d="M26.39 24.938a17.398 17.398 0 0 1-1.721 3.093c-.905 1.29-1.645 2.183-2.216 2.678-.885.814-1.833 1.231-2.849 1.255-.729 0-1.608-.208-2.63-.628-1.027-.42-1.97-.627-2.833-.627-.905 0-1.875.208-2.913.627-1.04.42-1.877.64-2.517.661-.973.042-1.944-.387-2.912-1.288-.619-.539-1.392-1.463-2.318-2.773-.994-1.398-1.812-3.02-2.452-4.869C.344 21.07 0 19.137 0 17.264c0-2.144.463-3.994 1.392-5.544a8.163 8.163 0 0 1 2.914-2.948 7.84 7.84 0 0 1 3.94-1.112c.774 0 1.788.24 3.048.71 1.257.471 2.063.71 2.417.71.265 0 1.161-.28 2.68-.837 1.438-.517 2.65-.731 3.644-.647 2.692.217 4.715 1.279 6.06 3.19-2.408 1.46-3.599 3.503-3.575 6.124.022 2.042.762 3.741 2.218 5.09a7.29 7.29 0 0 0 2.216 1.454c-.178.516-.365 1.01-.565 1.484zM20.214.64c0 1.6-.585 3.095-1.75 4.478-1.407 1.644-3.108 2.594-4.953 2.444a4.982 4.982 0 0 1-.037-.606c0-1.537.67-3.18 1.857-4.525.593-.68 1.347-1.247 2.262-1.698.912-.445 1.775-.69 2.587-.733.024.214.034.428.034.64z" fill="#FFCE00"/></svg>