<svg version="1.1" id="Layer_1" xmlns="http://www.w3.org/2000/svg" xmlns:xlink="http://www.w3.org/1999/xlink" x="0px" y="0px" viewBox="0 0 569.7 93.2" style="enable-background:new 0 0 569.7 93.2" xml:space="preserve">
          <g id="XMLID_1_">
            <path id="XMLID_141_" d="M39.5,82.3c1.7-6.6,3.2-13,5-19.4c0.2-0.7,1.5-1.5,2.4-1.7c8.8-1.9,15.3-9.5,15.5-18.4
          c0.3-10.6-8.3-19.5-19.1-19.7c-10.9-0.2-19.8,8.2-19.9,19c0,1.8-0.5,2.7-2.2,3.4c-5.2,2.3-10.3,4.8-15.4,7.2
          c-0.6,0.3-1.3,0.5-1.9,0.8c-4.3-11.3-2-30.8,14-43.1C33-1.2,54.3-0.8,69.1,11.5c14.3,11.8,18.7,31.9,10.5,48.4
          C72.2,74.9,53.2,85.5,39.5,82.3z"></path>
            <path id="XMLID_140_" d="M145.9,18.4c-0.8,0-1.6,0-2.4,0c-4.8,0.3-7.6,2.6-8.5,7.3c-1.7,8.9-3.3,17.9-4.9,26.9
          c-0.9,4.9-1.9,9.9-2.9,14.8c-0.1,0.7-0.4,1.4-0.6,2.1c-0.8,1.7-2,2.6-4,2.1c-2-0.6-2.6-1.8-2.2-3.8c1.8-9.7,3.5-19.5,5.2-29.2
          c0.9-5.2,1.9-10.4,2.6-15.6c0.4-3.3-0.3-4-3.6-4.2c-1.7-0.1-3.5-0.2-5.3,0c-6,0.4-8.1,2.2-9.2,8.1c-1.2,6.3-2.3,12.6-3.4,18.9
          c-1.3,7.1-2.6,14.3-4,21.4c-0.2,1.1-0.6,2.2-1.1,3.1c-0.9,1.5-2.3,1.9-3.9,1.4c-1.7-0.5-2.3-1.6-2.1-3.3c0.8-4.5,1.6-9,2.4-13.4
          c1.6-9.4,3.2-18.9,4.9-28.3c1.9-10.7,9.1-16.3,19.9-14.5c8.1,1.4,16,1.2,24.1,0.4c0.9-0.1,1.8-0.1,2.6-0.1
          c7.3,0.1,11.5,5.1,10.4,12.3c-0.9,5.8-1.9,11.5-3,17.2c-1.5,8.5-3.1,17-4.7,25.4c-0.2,1.1-0.4,2.5-1.1,3.1c-1.1,0.8-2.7,1.4-4,1.3
          c-0.7-0.1-1.7-1.9-1.6-2.9c0.3-4,1-7.9,1.7-11.8c1.9-11.1,3.9-22.2,5.9-33.2c0.5-3.1-0.5-4.5-3.6-5
          C148.4,18.4,147.1,18.4,145.9,18.4C145.9,18.4,145.9,18.4,145.9,18.4z"></path>
            <path id="XMLID_137_" d="M431.2,91.3c1.3-6.9,2.6-13.7,3.9-20.5c2-10.5,4.1-21,6-31.5c1.7-9.2,7.9-14.6,17.3-14.6
          c3.8,0,7.7,0,11.5,0.5c5.6,0.8,9.1,5.1,8.2,10.7c-1.2,8.2-2.8,16.4-4.7,24.4c-1.5,6.3-7.6,10.6-14.2,10.9
          c-3.7,0.2-7.5,0.1-11.3,0.1c-4.3,0.1-5.6,1.1-6.4,5.2c-0.7,3.4-1.3,6.7-2,10.1c-0.9,4.3-1.5,4.8-5.9,4.8
          C432.9,91.4,432.2,91.4,431.2,91.3z M453.8,64.5c1.9,0,3.8,0.1,5.8,0c3.6-0.1,6.1-2.1,6.8-5.6c1.5-7.2,2.8-14.4,4.1-21.6
          c0.7-3.9-1.1-5.7-5-5.8c-3-0.1-5.9-0.1-8.9,0c-4.2,0.1-6.9,2.4-7.7,6.5c-0.3,1.3-0.5,2.7-0.8,4c-1.1,6-2.3,11.9-3.4,17.9
          c-0.6,3.4,0.4,4.6,3.8,4.7C450.3,64.5,452,64.5,453.8,64.5z"></path>
            <path id="XMLID_134_" d="M256,6.7c-1.9,9.8-3.7,19.4-5.5,29.1c-1.4,7.1-2.8,14.3-4.1,21.4c-1.6,8.7-7,13.6-15.8,14.2
          c-3.8,0.2-7.7,0.2-11.5-0.1c-6.8-0.5-10.7-5.9-9.4-12.5c1.3-6.8,2.6-13.6,4-20.4c1.7-8.3,7.7-13.3,16.2-13.6c3.5-0.1,7,0,10.5-0.1
          c3.6,0,4.9-1,5.6-4.5c0.6-2.6,1-5.2,1.5-7.8C248.4,7,250.1,5.8,256,6.7z M226.7,64.6C226.7,64.6,226.7,64.6,226.7,64.6
          c1.6,0,3.2,0,4.8-0.1c3.9-0.2,6.2-2.2,7.1-5.9c0.3-1.3,0.5-2.7,0.8-4c1.2-6.1,2.4-12.2,3.5-18.3c0.6-3.3-0.2-4.6-3-4.7
          c-4.1-0.1-8.2-0.1-12.2,0c-3.3,0.1-5.5,2.1-6.3,5.3c-0.5,1.8-0.8,3.6-1.1,5.4c-1,5.3-2.1,10.6-3.1,16c-0.8,4.2,0.9,6.2,5.2,6.3
          C223.8,64.6,225.2,64.6,226.7,64.6z"></path>
            <path id="XMLID_131_" d="M496.5,53.9c-0.4,1.7-0.8,3.3-1,4.8c-0.6,3.6,1.2,5.7,4.8,5.8c4.5,0.1,9,0,13.4,0.1
          c3.5,0.1,5.2,1.6,5.5,4.5c0.1,1.5-0.1,2.4-2,2.4c-6.2-0.1-12.3,0.1-18.5-0.1c-7.9-0.2-12-5.2-10.7-12.9c1.2-7,2.5-14,4-20.9
          c1.5-7.2,7.1-12,15-12.6c4.4-0.3,8.8-0.2,13.2,0.3c5.9,0.7,9.3,5.6,8.4,11.5c-0.3,2.2-0.7,4.4-1.4,6.5c-2.2,6.4-8.2,10.6-15.5,10.7
          C506.7,53.9,501.7,53.9,496.5,53.9z M497.8,46.7c5.9,0,11.5,0.2,17-0.1c2.9-0.1,4.6-2.3,5.4-5.1c0.4-1.5,0.7-3.1,0.9-4.7
          c0.5-3.3-1.2-5.4-4.6-5.5c-3.3,0-6.5,0-9.8,0c-3.7,0.1-6.2,2-7,5.6C499.1,40.2,498.5,43.3,497.8,46.7z"></path>
            <path id="XMLID_128_" d="M172.7,53.9c-0.3,1.9-0.6,3.4-0.9,4.9c-0.6,3.5,1.1,5.6,4.6,5.7c3.8,0.1,7.5,0,11.3,0.1
          c1.4,0,2.9,0.1,4.3,0.3c2.4,0.4,4.1,3,3.5,5.4c-0.1,0.5-0.9,1.1-1.4,1.1c-7,0-13.9,0.2-20.9-0.3c-5.9-0.4-9.8-5.1-8.9-10.9
          c1.2-8.1,2.7-16.2,4.6-24.2c1.6-6.9,7.8-11,16-11.3c3.7-0.1,7.4,0,11,0.3c5.9,0.5,9.7,4.9,9.1,10.7c-0.3,3.1-1,6.4-2.3,9.2
          c-2.8,5.9-8,8.7-14.5,8.9C183,54,177.9,53.9,172.7,53.9z M174,46.9c5.9,0,11.3,0.1,16.7-0.1c2.7-0.1,4.6-1.9,5.5-4.4
          c0.7-2,1-4.2,1.2-6.3c0.2-2.9-1.4-4.5-4.3-4.6c-3.5-0.1-7-0.1-10.6,0c-3.1,0.1-5.4,1.7-6.2,4.7C175.3,39.6,174.8,43.1,174,46.9z"></path>
            <path id="XMLID_127_" d="M356.8,11.4c-0.2,1.3-0.4,2.3-0.6,3.3c-0.4,2.2-1.7,3.4-4,3.4c-4.2,0-8.5,0-12.7,0.1
          c-1.4,0-2.7,0.1-4.1,0.3c-3,0.4-5.1,2.1-5.8,5c-0.8,3.1-1.4,6.2-1.8,9.4c-0.4,3,0.8,4.6,3.9,4.9c3,0.3,6.1,0.2,9.1,0.3
          c1.4,0.1,2.9,0.1,4.3,0.4c6.1,1.4,9.2,5.9,8.1,12c-0.5,2.8-1.1,5.6-1.7,8.4c-1.7,7.5-7.8,12.4-15.5,12.5c-6.5,0-13.1,0-19.6,0
          c-0.1-5,1.6-6.8,6.2-6.8c4.6,0,9.1,0,13.7,0c4.5,0,7-2,7.9-6.4c0.6-2.7,1.2-5.5,1.5-8.2c0.3-3.1-1.3-4.9-4.4-5
          c-3.2-0.1-6.4,0-9.6,0c-8.5-0.2-12.7-5.4-11.1-13.7c0.4-2,0.7-3.9,1.1-5.9c1.4-7.8,6.5-13.1,14.5-13.7
          C342.9,10.9,349.7,11.4,356.8,11.4z"></path>
            <path id="XMLID_124_" d="M281,31.4c0.3-1.6,0.3-3,0.8-4c0.4-0.8,1.5-1.9,2.3-1.9c5.7-0.1,11.5-0.4,17.2,0.2
          c6,0.6,9.7,6,8.6,12c-1.3,7.5-2.7,14.9-4.2,22.3c-1.5,7.3-6,11.3-13.4,11.8c-3.3,0.2-6.7,0.2-10-0.2c-8.1-1-11.7-6.8-10-15.4
          c1.6-8.1,7.2-12.9,15.6-13.3c3.4-0.1,6.7,0,10.1,0c3.5-0.1,5-2.1,5.1-6.7c0-3-1.4-4.3-4.9-4.4c-4.6-0.1-9.3-0.1-13.9-0.2
          C283.3,31.7,282.4,31.5,281,31.4z M301.9,50.3c-5.9,0-11.1-0.1-16.4,0.1c-2.8,0.1-4.9,1.7-5.8,4.4c-0.7,2.2-1.1,4.5-1.2,6.8
          c-0.2,2.6,1.3,4.1,3.9,4.1c3.8,0.1,7.5,0.1,11.3,0c2.8,0,4.9-1.6,5.7-4.1C300.5,58,301,54.3,301.9,50.3z"></path>
            <path id="XMLID_123_" d="M361.7,71.1c0.9-4.6,1.7-9,2.6-13.5c1.2-6.3,2.3-12.6,3.6-18.8c1.6-8.2,6.6-13.1,14.8-13.9
          c4.2-0.4,8.5-0.2,12.7,0.3c6,0.8,9.4,5.3,8.4,11.2c-1.9,11.3-4.2,22.4-6.4,33.6c-0.1,0.5-1.2,1.2-1.8,1.2c-1.8,0.2-3.9,0.3-4.6-2
          c-0.4-1.1-0.4-2.4-0.2-3.5c1.6-8.7,3.4-17.4,5.1-26.1c0-0.1,0.1-0.2,0.1-0.2c1.3-6.1-0.2-8-6.4-8.1c-2,0-4-0.1-6,0
          c-4.5,0.2-7.1,2.3-7.9,6.8c-1.8,9-3.5,18-5.2,27C369.1,71.2,368.2,71.8,361.7,71.1z"></path>
            <path id="XMLID_122_" d="M535.9,71.3c1.7-8.7,3.2-17,4.8-25.4c0.5-2.8,1.1-5.6,1.7-8.4c1.7-7.6,8.2-12.7,15.9-12.7
          c3.3,0,6.5,0,9.8,0c0.5,3.7-2.1,6.7-5.6,6.8c-1.6,0-3.2,0-4.8,0c-4.5,0.1-7.1,2.3-8,6.7c-1.8,9.3-3.6,18.6-5.3,28
          c-0.9,4.9-1.5,5.3-6.5,5.3C537.3,71.3,536.8,71.3,535.9,71.3z"></path>
            <path id="XMLID_121_" d="M270,25c-0.9,5-1.9,9.8-2.8,14.7c-1.7,8.8-3.4,17.5-5,26.3c-1,5.4-2.4,6.4-8.4,5.2
          c0.7-3.8,1.4-7.6,2.1-11.4c1.9-9.8,3.7-19.6,5.6-29.4C262.5,25.3,264.3,24.2,270,25z"></path>
            <path id="XMLID_120_" d="M412,71.2c1.3-6.7,2.5-13.2,3.7-19.7c1.3-7,2.6-14,4-20.9c1-5.4,2.8-6.6,8.6-5.7
          c-0.8,4.3-1.6,8.6-2.4,12.9c-1.8,9.6-3.6,19.1-5.5,28.7c-0.9,4.5-1.5,5-6,4.9C413.6,71.3,412.9,71.3,412,71.2z"></path>
            <path id="XMLID_119_" d="M8.1,63.7c9.3-4.1,17.8-8,27-12.1c-2.3,9.6-4.5,18.7-6.8,28.5c-1.8-2.7-3.5-4.8-4.7-7.1
          c-1.6-3-4-4.8-7.2-5.9C13.8,66.3,11.3,65,8.1,63.7z"></path>
            <path id="XMLID_118_" d="M42.8,50.7c-4.6,0-8.5-3.7-8.5-8.3c-0.1-4.5,4-8.6,8.6-8.5c4.6,0,8.6,4,8.5,8.6
          C51.3,47,47.5,50.7,42.8,50.7z"></path>
            <path id="XMLID_117_" d="M430.6,14.9c0,2.2-1.9,4.4-3.9,4.4c-1.8,0-3.3-1.7-3.2-3.7c0-2.2,1.8-4.2,3.8-4.3
          C429,11.2,430.6,12.9,430.6,14.9z"></path>
            <path id="XMLID_116_" d="M272.3,15c0,2.3-1.8,4.4-3.8,4.4c-1.9,0-3.4-1.6-3.3-3.6c0-2.3,1.9-4.3,4-4.3
          C270.9,11.6,272.2,13,272.3,15z"></path>
          </g>
        </svg>